name Run_200 01
datacolumns 19
datarows 22
range 1.595833 1.617708
endheader
time	ground_force_vx	ground_force_vy	ground_force_vz	ground_force_px	ground_force_py	ground_force_pz	ground_force_vx	ground_force_vy	ground_force_vz	ground_force_px	ground_force_py	ground_force_pz	ground_torque_x	ground_torque_y	ground_torque_z	ground_torque_x	ground_torque_y	ground_torque_z
1.595833	-35.916531	159.218048	-6.992261	0.611925	0.000000	-0.239604	0.000000	0.000000	0.000000	0.000000	0.000000	0.000000	0.000000	-0.214871	0.000000	0.000000	0.000000	0.000000	
1.596875	-37.859348	176.361282	-7.373209	0.611055	0.000000	-0.241011	0.000000	0.000000	0.000000	0.000000	0.000000	0.000000	0.000000	-0.197406	0.000000	0.000000	0.000000	0.000000	
1.597917	-39.753254	194.807083	-7.737355	0.610189	0.000000	-0.242325	0.000000	0.000000	0.000000	0.000000	0.000000	0.000000	0.000000	-0.185219	0.000000	0.000000	0.000000	0.000000	
1.598958	-41.580925	214.543915	-8.080399	0.609324	0.000000	-0.243551	0.000000	0.000000	0.000000	0.000000	0.000000	0.000000	0.000000	-0.178318	0.000000	0.000000	0.000000	0.000000	
1.600000	-43.324356	235.542984	-8.397992	0.608453	0.000000	-0.244695	0.000000	0.000000	0.000000	0.000000	0.000000	0.000000	0.000000	-0.176693	0.000000	0.000000	0.000000	0.000000	
1.601042	-44.965176	257.757233	-8.685834	0.607573	0.000000	-0.245762	0.000000	0.000000	0.000000	0.000000	0.000000	0.000000	0.000000	-0.180310	0.000000	0.000000	0.000000	0.000000	
1.602083	-46.485039	281.120850	-8.939750	0.606679	0.000000	-0.246758	0.000000	0.000000	0.000000	0.000000	0.000000	0.000000	0.000000	-0.189115	0.000000	0.000000	0.000000	0.000000	
1.603125	-47.866055	305.549591	-9.155799	0.605767	0.000000	-0.247686	0.000000	0.000000	0.000000	0.000000	0.000000	0.000000	0.000000	-0.203032	0.000000	0.000000	0.000000	0.000000	
1.604167	-49.091240	330.941132	-9.330369	0.604834	0.000000	-0.248551	0.000000	0.000000	0.000000	0.000000	0.000000	0.000000	0.000000	-0.221962	0.000000	0.000000	0.000000	0.000000	
1.605208	-50.145058	357.176514	-9.460293	0.603878	0.000000	-0.249354	0.000000	0.000000	0.000000	0.000000	0.000000	0.000000	0.000000	-0.245785	0.000000	0.000000	0.000000	0.000000	
1.606250	-51.013912	384.121918	-9.542948	0.602898	0.000000	-0.250101	0.000000	0.000000	0.000000	0.000000	0.000000	0.000000	0.000000	-0.274358	0.000000	0.000000	0.000000	0.000000	
1.607292	-51.686733	411.630768	-9.576366	0.601894	0.000000	-0.250792	0.000000	0.000000	0.000000	0.000000	0.000000	0.000000	0.000000	-0.307516	0.000000	0.000000	0.000000	0.000000	
1.608333	-52.155514	439.546692	-9.559331	0.600865	0.000000	-0.251431	0.000000	0.000000	0.000000	0.000000	0.000000	0.000000	0.000000	-0.345075	0.000000	0.000000	0.000000	0.000000	
1.609375	-52.415871	467.706390	-9.491462	0.599814	0.000000	-0.252020	0.000000	0.000000	0.000000	0.000000	0.000000	0.000000	0.000000	-0.386829	0.000000	0.000000	0.000000	0.000000	
1.610417	-52.467571	495.943054	-9.373295	0.598740	0.000000	-0.252560	0.000000	0.000000	0.000000	0.000000	0.000000	0.000000	0.000000	-0.432552	0.000000	0.000000	0.000000	0.000000	
1.611458	-52.315002	524.089661	-9.206332	0.597647	0.000000	-0.253053	0.000000	0.000000	0.000000	0.000000	0.000000	0.000000	0.000000	-0.482000	0.000000	0.000000	0.000000	0.000000	
1.612500	-51.967583	551.982361	-8.993085	0.596535	0.000000	-0.253502	0.000000	0.000000	0.000000	0.000000	0.000000	0.000000	0.000000	-0.534912	0.000000	0.000000	0.000000	0.000000	
1.613542	-51.440079	579.463562	-8.737079	0.595408	0.000000	-0.253907	0.000000	0.000000	0.000000	0.000000	0.000000	0.000000	0.000000	-0.591009	0.000000	0.000000	0.000000	0.000000	
1.614583	-50.752804	606.385132	-8.442848	0.594268	0.000000	-0.254271	0.000000	0.000000	0.000000	0.000000	0.000000	0.000000	0.000000	-0.649999	0.000000	0.000000	0.000000	0.000000	
1.615625	-49.931660	632.610718	-8.115891	0.593117	0.000000	-0.254595	0.000000	0.000000	0.000000	0.000000	0.000000	0.000000	0.000000	-0.711573	0.000000	0.000000	0.000000	0.000000	
1.616667	-49.008034	658.018127	-7.762599	0.591957	0.000000	-0.254882	0.000000	0.000000	0.000000	0.000000	0.000000	0.000000	0.000000	-0.775415	0.000000	0.000000	0.000000	0.000000	
1.617708	-48.018478	682.500916	-7.390173	0.590791	0.000000	-0.255134	0.000000	0.000000	0.000000	0.000000	0.000000	0.000000	0.000000	-0.841195	0.000000	0.000000	0.000000	0.000000	
